<?xml version="1.0" encoding="utf-8"?>
<!-- Generator: Adobe Illustrator 19.2.1, SVG Export Plug-In . SVG Version: 6.00 Build 0)  -->
<svg version="1.1" id="Layer_1" xmlns="http://www.w3.org/2000/svg" xmlns:xlink="http://www.w3.org/1999/xlink" x="0px" y="0px"
	 viewBox="0 0 80.1 87.3" style="enable-background:new 0 0 80.1 87.3;" xml:space="preserve">
<style type="text/css">
	.st0{fill:#00DAAF;}
</style>
<g>
	<path class="st0" d="M45.1,55c0,0.8,0.6,1.4,1.4,1.5c0.8,0,1.4-0.6,1.5-1.4c0-0.1,0.3-7.2,10.1-13.5c1.3-0.8,4.1-3.3,5.5-5.8
		c1.5,1.7,2.4,4.3,2.8,7.2c0.6,5.6-1.1,11.6-4.4,15.2c-4.5,5-11.6,5.8-14.6,5.9c2.2-4.2,5.2-8.8,8.7-10c0.7-0.3,1.1-1.1,0.9-1.8
		c-0.3-0.7-1.1-1.1-1.8-0.9c-5.4,2-9.5,9.5-11.6,14.3c-1.9-6.5-5.8-15-13.5-22.8c-0.6-0.6-1.5-0.6-2,0s-0.6,1.5,0,2
		c3.5,3.5,6.1,7.2,8.2,10.7c-3-0.4-8.5-1.6-13.5-5.6c-3.5-2.9-5.7-8.1-5.7-13.7c0-4,1.1-7.5,3-9.7c1.8,2,4.6,3.3,6.7,4.3
		c0.7,0.3,1.4,0.7,1.9,1c10.5,5.8,10.9,18.2,10.9,18.3c0,0.8,0.7,1.5,1.4,1.5c0,0,0,0,0,0c0.8,0,1.4-0.8,1.4-1.6
		c0-0.6-0.5-14.2-12.4-20.8c-0.6-0.3-1.3-0.7-2-1c-2.3-1.1-5.3-2.5-6.5-4.6c-0.2-0.4-0.6-0.6-1-0.7c-0.4-0.1-0.8,0-1.2,0.3
		c-3.2,2.6-5.1,7.5-5.1,13c0,6.5,2.5,12.5,6.8,16c6.8,5.6,14.4,6.3,16.9,6.4c4.7,9.8,4.9,18,4.9,18.1c0,0.8,0.6,1.4,1.4,1.4
		c0,0,0,0,0,0c0.8,0,1.4-0.6,1.4-1.4c0-0.3,0-2.6-0.7-6.3c0.3-0.9,0.8-2.2,1.4-3.5c0.2,0,0.4,0,0.7,0c2.8,0,11.6-0.5,17.3-6.8
		c3.8-4.2,5.8-11.1,5.2-17.5c-0.5-4.7-2.4-8.5-5.3-10.5c-0.4-0.3-0.9-0.3-1.4-0.2c-0.5,0.2-0.8,0.6-0.9,1.1c-0.3,1.8-3.3,5-5.1,6.1
		C45.5,46.3,45.1,54.6,45.1,55z"/>
	<path class="st0" d="M61.1,12.8c-0.7-0.4-1.6-0.2-1.9,0.5c-0.4,0.7-0.2,1.6,0.5,1.9c11.5,6.6,18.6,19,18.6,32.2
		c0,20.5-16.7,37.2-37.2,37.2C20.6,84.7,3.9,68,3.9,47.5c0-17.3,11.7-32.1,28.4-36.1c0.2,5.7,5.2,10.2,11.2,10.2
		c0.7,0,1.3-0.6,1.3-1.3v-2.8h5.7c0.8,0,1.4-0.6,1.4-1.4c0-0.8-0.6-1.4-1.4-1.4h-5.7V7.1h5.7c0.8,0,1.4-0.6,1.4-1.4
		c0-0.8-0.6-1.4-1.4-1.4h-5.7V1.5c0-0.7-0.6-1.3-1.3-1.3c-5.3,0-9.7,3.5-10.9,8.2c-0.2,0-0.3,0-0.5,0C13.8,12.7,1,28.7,1,47.5
		c0,22.1,18,40,40,40c22.1,0,40-18,40-40C81.1,33.3,73.5,20,61.1,12.8z M42.2,2.9V19c-4.2-0.6-7.4-4-7.4-8
		C34.8,6.9,38.1,3.5,42.2,2.9z"/>
</g>
</svg>
