<?xml version="1.0" encoding="utf-8"?>
<!-- Generator: Adobe Illustrator 19.2.1, SVG Export Plug-In . SVG Version: 6.00 Build 0)  -->
<svg version="1.1" id="Layer_1" xmlns="http://www.w3.org/2000/svg" xmlns:xlink="http://www.w3.org/1999/xlink" x="0px" y="0px"
	 viewBox="0 0 100 125" style="enable-background:new 0 0 100 125;" xml:space="preserve">
<style type="text/css">
	.st0{fill:#00647F;}
</style>
<path class="st0" d="M92.5,15H85v-2.5c0-1.4-1.1-2.5-2.5-2.5h-25c-1.4,0-2.5,1.1-2.5,2.5V15H45v-2.5c0-1.4-1.1-2.5-2.5-2.5h-25
	c-1.4,0-2.5,1.1-2.5,2.5V15H7.5C6.1,15,5,16.1,5,17.5v70C5,88.9,6.1,90,7.5,90h85c1.4,0,2.5-1.1,2.5-2.5v-70
	C95,16.1,93.9,15,92.5,15z M90,85H10V20h7.5h25h15h25H90V85z"/>
<path class="st0" d="M67.5,25h-50c-1.4,0-2.5,1.1-2.5,2.5v50c0,1.4,1.1,2.5,2.5,2.5h50c1.4,0,2.5-1.1,2.5-2.5v-50
	C70,26.1,68.9,25,67.5,25z M65,75H20V30h45V75z"/>
<path class="st0" d="M52.5,55h-20c-4.1,0-7.5,3.4-7.5,7.5s3.4,7.5,7.5,7.5h25c1.4,0,2.5-1.1,2.5-2.5S58.9,65,57.5,65h-25
	c-1.4,0-2.5-1.1-2.5-2.5s1.1-2.5,2.5-2.5h20c4.1,0,7.5-3.4,7.5-7.5S56.6,45,52.5,45h-20c-1.4,0-2.5-1.1-2.5-2.5s1.1-2.5,2.5-2.5h25
	c1.4,0,2.5-1.1,2.5-2.5S58.9,35,57.5,35h-25c-4.1,0-7.5,3.4-7.5,7.5s3.4,7.5,7.5,7.5h20c1.4,0,2.5,1.1,2.5,2.5S53.9,55,52.5,55z"/>
<path class="st0" d="M75,30c0,2.8,2.2,5,5,5s5-2.2,5-5s-2.2-5-5-5S75,27.2,75,30z"/>
<path class="st0" d="M80,40c-2.8,0-5,2.2-5,5s2.2,5,5,5s5-2.2,5-5S82.8,40,80,40z"/>
<path class="st0" d="M80,55c-2.8,0-5,2.2-5,5s2.2,5,5,5s5-2.2,5-5S82.8,55,80,55z"/>
<path class="st0" d="M80,70c-2.8,0-5,2.2-5,5s2.2,5,5,5s5-2.2,5-5S82.8,70,80,70z"/>
</svg>
