<?xml version="1.0" encoding="utf-8"?>
<!-- Generator: Adobe Illustrator 19.2.1, SVG Export Plug-In . SVG Version: 6.00 Build 0)  -->
<svg version="1.1" id="Layer_1" xmlns="http://www.w3.org/2000/svg" xmlns:xlink="http://www.w3.org/1999/xlink" x="0px" y="0px"
	 viewBox="0 0 100 125" style="enable-background:new 0 0 100 125;" xml:space="preserve">
<style type="text/css">
	.st0{fill:#00647F;}
</style>
<path class="st0" d="M82.5,5h-65C16.1,5,15,6.1,15,7.5v85c0,1.4,1.1,2.5,2.5,2.5h65c1.4,0,2.5-1.1,2.5-2.5v-85C85,6.1,83.9,5,82.5,5
	z M80,90H20V10h60V90z"/>
<path class="st0" d="M50,80c10.4,0,19.9-6.7,23.5-16.5s0.5-21.1-7.6-27.8s-19.8-7.6-28.8-2.2S23.4,49.6,25.4,59.9
	c2,10.1,10.4,18.2,20.7,19.8C47.4,79.9,48.7,80,50,80z M50,35c2.3,0,4.6,0.4,6.8,1.2c2.1,0.8,3.8,2.2,5.4,3.9
	c3.1,3.5,4.8,8,4.7,12.7c-0.3,9.3-8.5,17.2-18,15.9c-4.4-0.6-8.5-3.3-10.6-7.2c-2.2-4.1-2.1-9.2,0.6-13c2.5-3.6,6.9-5.5,11.2-4.5
	c4.4,1.1,7.8,5.5,6.6,10.1c-0.5,2.1-2,3.9-4.1,4.6c-1.9,0.7-4.2,0.2-5.4-1.4c-0.7-1-1.1-4.1,0.9-3.7c0.9,0.2,1.5,0.5,2.4,0
	c0.8-0.4,1.3-1.2,1.3-2.1c0.1-2.1-2.3-3-4.1-3c-2.1,0-4,1.3-5.1,3.1c-2.4,4-0.4,9.1,3.6,11.3c3.9,2.2,8.9,1.2,12.1-1.8
	c3.4-3.2,4.5-8.3,3-12.7c-3-9.2-14.4-12-22.1-7C31,46.6,29.6,58,35,65.7c5.5,7.8,16.3,10.2,24.8,6c1.9-0.9,3.7-2.2,5.3-3.7
	c-7.4,8.5-20.8,9.1-28.9,1.3c-7.6-7.3-8.1-19.5-1.3-27.5C38.7,37.6,44.2,35,50,35z"/>
<path class="st0" d="M50,25c2.8,0,5-2.2,5-5s-2.2-5-5-5s-5,2.2-5,5S47.2,25,50,25z"/>
</svg>
