<?xml version="1.0" encoding="utf-8"?>
<!-- Generator: Adobe Illustrator 19.2.1, SVG Export Plug-In . SVG Version: 6.00 Build 0)  -->
<svg version="1.1" id="Layer_1" xmlns="http://www.w3.org/2000/svg" xmlns:xlink="http://www.w3.org/1999/xlink" x="0px" y="0px"
	 viewBox="0 0 100 125" style="enable-background:new 0 0 100 125;" xml:space="preserve">
<style type="text/css">
	.st0{fill:#00647F;}
</style>
<path class="st0" d="M92.5,20h-85C6.1,20,5,21.1,5,22.5v55C5,78.9,6.1,80,7.5,80h85c1.4,0,2.5-1.1,2.5-2.5v-55
	C95,21.1,93.9,20,92.5,20z M65,75H10V25h55V75z M90,75H70V25h20V75z"/>
<circle class="st0" cx="80" cy="65" r="5"/>
<circle class="st0" cx="80" cy="50" r="5"/>
<path class="st0" d="M75,35h10c1.4,0,2.5-1.1,2.5-2.5S86.4,30,85,30H75c-1.4,0-2.5,1.1-2.5,2.5C72.5,33.9,73.6,35,75,35z"/>
<path class="st0" d="M15,70h45c1.4,0,2.5-1.1,2.5-2.5v-35c0-1.4-1.1-2.5-2.5-2.5H15c-1.4,0-2.5,1.1-2.5,2.5v35
	C12.5,68.9,13.6,70,15,70z M17.5,35h40v30h-40V35z"/>
</svg>
