<?xml version="1.0" encoding="utf-8"?>
<!-- Generator: Adobe Illustrator 19.2.1, SVG Export Plug-In . SVG Version: 6.00 Build 0)  -->
<svg version="1.1" id="Layer_1" xmlns="http://www.w3.org/2000/svg" xmlns:xlink="http://www.w3.org/1999/xlink" x="0px" y="0px"
	 viewBox="0 0 100 125" style="enable-background:new 0 0 100 125;" xml:space="preserve">
<style type="text/css">
	.st0{fill:#00647F;}
</style>
<path class="st0" d="M87.5,10h-75C8.4,10,5,13.4,5,17.5V40c0,1.4,1.1,2.5,2.5,2.5h10V45c0,1.4,1.1,2.5,2.5,2.5h60
	c1.4,0,2.5-1.1,2.5-2.5v-2.5h10c1.4,0,2.5-1.1,2.5-2.5V17.5C95,13.4,91.6,10,87.5,10z M27.5,42.5h-5v-5h5V42.5z M37.5,42.5h-5v-5h5
	V42.5z M47.5,42.5h-5v-5h5V42.5z M57.5,42.5h-5v-5h5V42.5z M67.5,42.5h-5v-5h5V42.5z M77.5,42.5h-5v-5h5V42.5z M90,37.5h-7.5V35
	c0-1.4-1.1-2.5-2.5-2.5H20c-1.4,0-2.5,1.1-2.5,2.5v2.5H10v-20c0-1.4,1.1-2.5,2.5-2.5h75c1.4,0,2.5,1.1,2.5,2.5V37.5z"/>
<path class="st0" d="M80,20H70c-1.4,0-2.5,1.1-2.5,2.5S68.6,25,70,25h10c1.4,0,2.5-1.1,2.5-2.5S81.4,20,80,20z"/>
<path class="st0" d="M30,52.5c-1.4,0-2.5,1.1-2.5,2.5v10c0,3.4-2.8,6.3-6.3,6.3S15,68.4,15,65c0-1.4-1.1-2.5-2.5-2.5S10,63.6,10,65
	c0,6.2,5,11.3,11.3,11.3s11.3-5,11.3-11.3V55C32.5,53.6,31.4,52.5,30,52.5z"/>
<path class="st0" d="M70,52.5c-1.4,0-2.5,1.1-2.5,2.5v10c0,6.2,5,11.3,11.3,11.3S90,71.2,90,65c0-1.4-1.1-2.5-2.5-2.5S85,63.6,85,65
	c0,3.4-2.8,6.3-6.3,6.3s-6.3-2.8-6.3-6.3V55C72.5,53.6,71.4,52.5,70,52.5z"/>
<path class="st0" d="M40,52.5c-1.4,0-2.5,1.1-2.5,2.5v12.5c0,8.3-6.7,15-15,15c-1.4,0-2.5,1.1-2.5,2.5s1.1,2.5,2.5,2.5
	c11,0,20-9,20-20V55C42.5,53.6,41.4,52.5,40,52.5z"/>
<path class="st0" d="M42.1,91.9c0.5,0.4,1,0.6,1.6,0.6c0.7,0,1.4-0.3,1.9-0.9c4.4-5.4,6.9-12.1,6.9-19.1V55c0-1.4-1.1-2.5-2.5-2.5
	s-2.5,1.1-2.5,2.5v17.5c0,5.8-2,11.4-5.7,15.9C40.9,89.5,41.1,91,42.1,91.9z"/>
<path class="st0" d="M60,52.5c-1.4,0-2.5,1.1-2.5,2.5v17.5c0,7,2.4,13.7,6.9,19.1c0.5,0.6,1.2,0.9,1.9,0.9c0.6,0,1.1-0.2,1.6-0.6
	c1.1-0.9,1.2-2.5,0.3-3.5c-3.7-4.5-5.7-10.1-5.7-15.9V55C62.5,53.6,61.4,52.5,60,52.5z"/>
</svg>
