<?xml version="1.0" encoding="utf-8"?>
<!-- Generator: Adobe Illustrator 19.2.1, SVG Export Plug-In . SVG Version: 6.00 Build 0)  -->
<svg version="1.1" id="Layer_1" xmlns="http://www.w3.org/2000/svg" xmlns:xlink="http://www.w3.org/1999/xlink" x="0px" y="0px"
	 viewBox="0 0 29 47.5" style="enable-background:new 0 0 29 47.5;" xml:space="preserve">
<style type="text/css">
	.st0{fill:#00647F;}
</style>
<title>freezer</title>
<desc>Created with Sketch.</desc>
<g>
	<path class="st0" d="M0,3c0-1.6,1.3-3,3-3h23c1.7,0,3,1.3,3,3v32c0,1.6-1.3,3-3,3H3c-1.7,0-3-1.3-3-3V3L0,3z M2,35c0,0.6,0.4,1,1,1
		h23c0.5,0,1-0.5,1-1V14H2V35L2,35z M2,12h25V3c0-0.6-0.4-1-1-1H3C2.5,2,2,2.5,2,3V12L2,12z M6.5,17.5c0-0.6-0.4-1-1-1s-1,0.4-1,1v7
		c0,0.6,0.4,1,1,1s1-0.4,1-1V17.5L6.5,17.5z M6.5,5.5c0-0.6-0.4-1-1-1s-1,0.4-1,1v4c0,0.6,0.4,1,1,1s1-0.4,1-1V5.5L6.5,5.5z"/>
</g>
</svg>
