<?xml version="1.0" encoding="utf-8"?>
<!-- Generator: Adobe Illustrator 19.2.1, SVG Export Plug-In . SVG Version: 6.00 Build 0)  -->
<svg version="1.1" id="Layer_1" xmlns="http://www.w3.org/2000/svg" xmlns:xlink="http://www.w3.org/1999/xlink" x="0px" y="0px"
	 viewBox="0 0 100 125" style="enable-background:new 0 0 100 125;" xml:space="preserve">
<style type="text/css">
	.st0{fill:#00647F;}
</style>
<path class="st0" d="M70,40H48.7c-4.8,0-9,2.6-11.2,6.9l-2.2,4.5c-0.4,0.8-0.3,1.7,0.1,2.4c0.5,0.7,1.3,1.2,2.1,1.2H70
	c1.4,0,2.5-1.1,2.5-2.5v-10C72.5,41.1,71.4,40,70,40z M67.5,50h-26l0.4-0.9c1.3-2.6,3.8-4.1,6.7-4.1h18.8L67.5,50L67.5,50z"/>
<path class="st0" d="M93.6,20.3c-1.2-0.6-2.7-0.1-3.4,1.1L86,30H40.7c-9,0-17.1,5.4-20.7,13.6l-9.8,22.8l-5,9.9
	c-0.4,0.8-0.3,1.7,0.1,2.4C5.8,79.6,6.6,80,7.5,80H80c0.8,0,1.5-0.4,2-1s0.6-1.4,0.5-2.1L80.7,70h11.8c0.7,0,1.4-0.3,1.9-0.9
	c0.5-0.5,0.7-1.3,0.6-2l-4.9-34.2l4.7-9.3C95.4,22.4,94.9,20.9,93.6,20.3z M11.5,75l2.5-5h61.5l1.3,5H11.5z M77.5,65H16.3l8.3-19.4
	C27.4,39.2,33.7,35,40.7,35h44.6l4.3,30H77.5z"/>
</svg>
