<?xml version="1.0" encoding="utf-8"?>
<!-- Generator: Adobe Illustrator 19.2.1, SVG Export Plug-In . SVG Version: 6.00 Build 0)  -->
<svg version="1.1" id="Layer_1" xmlns="http://www.w3.org/2000/svg" xmlns:xlink="http://www.w3.org/1999/xlink" x="0px" y="0px"
	 viewBox="0 0 100 125" style="enable-background:new 0 0 100 125;" xml:space="preserve">
<style type="text/css">
	.st0{fill:#00647F;}
</style>
<path class="st0" d="M87.5,25H56L71.8,9.3c1-1,1-2.6,0-3.5c-1-1-2.6-1-3.5,0L50,24L31.8,5.7c-1-1-2.6-1-3.5,0c-1,1-1,2.6,0,3.5
	L44,25H12.5C8.4,25,5,28.4,5,32.5v55c0,4.1,3.4,7.5,7.5,7.5h75c4.1,0,7.5-3.4,7.5-7.5v-55C95,28.4,91.6,25,87.5,25z M90,87.5
	c0,1.4-1.1,2.5-2.5,2.5h-75c-1.4,0-2.5-1.1-2.5-2.5v-55c0-1.4,1.1-2.5,2.5-2.5h75c1.4,0,2.5,1.1,2.5,2.5V87.5z"/>
<path class="st0" d="M67.5,35h-50c-1.4,0-2.5,1.1-2.5,2.5v45c0,1.4,1.1,2.5,2.5,2.5h50c1.4,0,2.5-1.1,2.5-2.5v-45
	C70,36.1,68.9,35,67.5,35z M65,80H20V40h45V80z"/>
<path class="st0" d="M80,35c-2.8,0-5,2.2-5,5s2.2,5,5,5s5-2.2,5-5S82.8,35,80,35z"/>
<path class="st0" d="M80,50c-2.8,0-5,2.2-5,5s2.2,5,5,5s5-2.2,5-5S82.8,50,80,50z"/>
</svg>
