<?xml version="1.0" encoding="utf-8"?>
<!-- Generator: Adobe Illustrator 19.2.1, SVG Export Plug-In . SVG Version: 6.00 Build 0)  -->
<svg version="1.1" id="Layer_1" xmlns="http://www.w3.org/2000/svg" xmlns:xlink="http://www.w3.org/1999/xlink" x="0px" y="0px"
	 viewBox="0 0 100 125" style="enable-background:new 0 0 100 125;" xml:space="preserve">
<style type="text/css">
	.st0{fill:#00647F;}
</style>
<circle class="st0" cx="20" cy="80" r="2.5"/>
<path class="st0" d="M93.3,82.6L82,78.9c-0.5-0.2-1-0.2-1.5,0l-2.7,0.8L58.3,10h4.2c1.4,0,2.5-1.1,2.5-2.5S63.9,5,62.5,5H55
	c-0.8,0-1.5,0.4-2,1s-0.6,1.4-0.4,2.2l1.4,5.1c-7,3.5-12.1,9.7-14,17.4c-2,8.1-0.2,16.5,4.9,23l9.3,11.8c2.1,2.7,3.2,6,3.2,9.4
	c0,7.5-5.4,13.7-12.6,14.9c4.4-3.9,7.6-9.4,7.6-14.8c0-0.7-0.3-1.3-0.7-1.8l-25-25c-0.5-0.5-1.1-0.7-1.8-0.7c-9.7,0-20,10.3-20,20
	c0,0.7,0.3,1.3,0.7,1.8l2.1,2.1C6,73.8,5,76.8,5,80c0,8.3,6.7,15,15,15c0.3,0,22.4,0,22.4,0c11.1,0,20.1-9,20.1-20.1
	c0-4.5-1.5-8.9-4.3-12.5l-9.3-11.8c-4.2-5.3-5.6-12.1-4-18.7c1.5-5.9,5.3-10.8,10.5-13.7L73.1,81l-1.3,0.4c-1.1,0.3-1.8,1.3-1.8,2.4
	v8.8c0,1.4,1.1,2.5,2.5,2.5h20c1.4,0,2.5-1.1,2.5-2.5V85C95,83.9,94.3,83,93.3,82.6z M20,90c-5.5,0-10-4.5-10-10s4.5-10,10-10
	s10,4.5,10,10S25.5,90,20,90z M33.5,89.9l-1.3-1.3C34,86.2,35,83.2,35,80c0-8.3-6.7-15-15-15c-3.2,0-6.2,1-8.7,2.8L10,66.5
	c0.7-6.3,7.7-13.3,14-14L47.4,76C46.8,82.3,39.8,89.3,33.5,89.9z M90,90H75v-4.4l6.2-1.8l8.8,2.9V90z"/>
</svg>
