<?xml version="1.0" encoding="utf-8"?>
<!-- Generator: Adobe Illustrator 19.2.1, SVG Export Plug-In . SVG Version: 6.00 Build 0)  -->
<svg version="1.1" id="Layer_1" xmlns="http://www.w3.org/2000/svg" xmlns:xlink="http://www.w3.org/1999/xlink" x="0px" y="0px"
	 viewBox="0 0 100 125" style="enable-background:new 0 0 100 125;" xml:space="preserve">
<style type="text/css">
	.st0{fill:#00647F;}
</style>
<path class="st0" d="M82.5,5h-65C16.1,5,15,6.1,15,7.5v85c0,1.4,1.1,2.5,2.5,2.5h65c1.4,0,2.5-1.1,2.5-2.5v-85C85,6.1,83.9,5,82.5,5
	z M20,10h20v10H20V10z M80,90H20V25h22.5c1.4,0,2.5-1.1,2.5-2.5V10h35V90z"/>
<path class="st0" d="M25,55c0,13.8,11.2,25,25,25c5.9,0,11.3-2,15.6-5.5c0.1,0,0.1-0.1,0.2-0.2C71.4,69.8,75,62.8,75,55
	c0-13.8-11.2-25-25-25S25,41.2,25,55z M50,75c-2.7,0-5.3-0.5-7.6-1.5c0.8-0.5,1.6-1,2.2-1.5c1.6-1.2,2.8-2,5.4-2
	c2.6,0,3.8,0.8,5.4,2c0.7,0.5,1.4,1,2.2,1.5C55.3,74.5,52.7,75,50,75z M63.2,70c-2.2-0.1-3.4-0.9-4.9-2c-1.8-1.3-4.1-3-8.3-3
	s-6.5,1.7-8.3,3c-1.5,1.1-2.6,1.9-4.9,2c-1.8-1.6-3.3-3.4-4.4-5.5c1.1,0.3,2.3,0.5,3.9,0.5c4.3,0,6.5-1.7,8.3-3c1.6-1.2,2.8-2,5.4-2
	c2.6,0,3.8,0.8,5.4,2c1.8,1.3,4.1,3,8.3,3c1.5,0,2.8-0.2,3.9-0.6C66.5,66.5,65,68.4,63.2,70z M70,55c0,0.8-0.1,1.7-0.2,2.5
	c-0.2,0.2-0.4,0.3-0.7,0.5c-1.6,1.2-2.8,2-5.4,2s-3.8-0.8-5.4-2c-1.8-1.3-4.1-3-8.3-3s-6.5,1.7-8.3,3c-1.6,1.2-2.8,2-5.4,2
	c-2.6,0-3.8-0.8-5.4-2c-0.2-0.2-0.4-0.3-0.7-0.5C30.1,56.7,30,55.9,30,55c0-0.5,0-1,0.1-1.5c1.5,0.8,3.4,1.5,6.2,1.5
	c4.3,0,6.5-1.7,8.3-3c1.6-1.2,2.8-2,5.4-2c2.6,0,3.8,0.8,5.4,2c1.8,1.3,4.1,3,8.3,3c2.8,0,4.7-0.7,6.2-1.5C70,54,70,54.5,70,55z
	 M50,35c8.7,0,16,5.5,18.8,13.2c-1.4,1-2.6,1.8-5.1,1.8c-2.6,0-3.8-0.8-5.4-2c-1.8-1.3-4.1-3-8.3-3s-6.5,1.7-8.3,3
	c-1.6,1.2-2.8,2-5.4,2c-2.4,0-3.6-0.7-5-1.8C34,40.5,41.3,35,50,35z"/>
<path class="st0" d="M62.5,25c2.8,0,5-2.2,5-5s-2.2-5-5-5s-5,2.2-5,5S59.7,25,62.5,25z"/>
</svg>
