<?xml version="1.0" encoding="utf-8"?>
<!-- Generator: Adobe Illustrator 19.2.1, SVG Export Plug-In . SVG Version: 6.00 Build 0)  -->
<svg version="1.1" id="Layer_1" xmlns="http://www.w3.org/2000/svg" xmlns:xlink="http://www.w3.org/1999/xlink" x="0px" y="0px"
	 viewBox="0 0 100 125" style="enable-background:new 0 0 100 125;" xml:space="preserve">
<style type="text/css">
	.st0{fill:#00647F;}
</style>
<path class="st0" d="M92.5,17.5h-5V15c0-0.5-0.1-1-0.4-1.4l-5-7.5C81.6,5.4,80.8,5,80,5s-1.6,0.4-2.1,1.1l-5,7.5
	c-0.3,0.4-0.4,0.9-0.4,1.4v2.5h-5V15c0-0.5-0.1-1-0.4-1.4l-5-7.5C61.6,5.4,60.8,5,60,5s-1.6,0.4-2.1,1.1l-5,7.5
	c-0.3,0.4-0.4,0.9-0.4,1.4v2.5h-5V15c0-0.5-0.1-1-0.4-1.4l-5-7.5C41.6,5.4,40.8,5,40,5s-1.6,0.4-2.1,1.1l-5,7.5
	c-0.3,0.4-0.4,0.9-0.4,1.4v2.5h-5V15c0-0.5-0.1-1-0.4-1.4l-5-7.5C21.6,5.4,20.8,5,20,5s-1.6,0.4-2.1,1.1l-5,7.5
	c-0.3,0.4-0.4,0.9-0.4,1.4v2.5h-5C6.1,17.5,5,18.6,5,20v10c0,1.4,1.1,2.5,2.5,2.5h5v35h-5C6.1,67.5,5,68.6,5,70v10
	c0,1.4,1.1,2.5,2.5,2.5h5V85c0,0.5,0.1,1,0.4,1.4l5,7.5c0.5,0.7,1.2,1.1,2.1,1.1s1.6-0.4,2.1-1.1l5-7.5c0.3-0.4,0.4-0.9,0.4-1.4
	v-2.5h5V85c0,0.5,0.1,1,0.4,1.4l5,7.5c0.5,0.7,1.2,1.1,2.1,1.1s1.6-0.4,2.1-1.1l5-7.5c0.3-0.4,0.4-0.9,0.4-1.4v-2.5h5V85
	c0,0.5,0.1,1,0.4,1.4l5,7.5c0.5,0.7,1.2,1.1,2.1,1.1s1.6-0.4,2.1-1.1l5-7.5c0.3-0.4,0.4-0.9,0.4-1.4v-2.5h5V85c0,0.5,0.1,1,0.4,1.4
	l5,7.5c0.5,0.7,1.2,1.1,2.1,1.1s1.6-0.4,2.1-1.1l5-7.5c0.3-0.4,0.4-0.9,0.4-1.4v-2.5h5c1.4,0,2.5-1.1,2.5-2.5V70
	c0-1.4-1.1-2.5-2.5-2.5h-5v-35h5c1.4,0,2.5-1.1,2.5-2.5V20C95,18.6,93.9,17.5,92.5,17.5z M12.5,77.5H10v-5h2.5V77.5z M12.5,27.5H10
	v-5h2.5V27.5z M22.5,84.2L20,88l-2.5-3.8V15.8L20,12l2.5,3.8V84.2z M32.5,77.5h-5v-5h5V77.5z M32.5,67.5h-5v-35h5V67.5z M32.5,27.5
	h-5v-5h5V27.5z M42.5,84.2L40,88l-2.5-3.8V15.8L40,12l2.5,3.8V84.2z M52.5,77.5h-5v-5h5V77.5z M52.5,67.5h-5v-35h5V67.5z M52.5,27.5
	h-5v-5h5V27.5z M62.5,84.2L60,88l-2.5-3.8V15.8L60,12l2.5,3.8V84.2z M72.5,77.5h-5v-5h5V77.5z M72.5,67.5h-5v-35h5V67.5z M72.5,27.5
	h-5v-5h5V27.5z M82.5,84.2L80,88l-2.5-3.8V15.8L80,12l2.5,3.8V84.2z M90,72.5v5h-2.5v-5H90z M90,27.5h-2.5v-5H90V27.5z"/>
</svg>
