<?xml version="1.0" encoding="utf-8"?>
<!-- Generator: Adobe Illustrator 19.2.1, SVG Export Plug-In . SVG Version: 6.00 Build 0)  -->
<svg version="1.1" id="Layer_1" xmlns="http://www.w3.org/2000/svg" xmlns:xlink="http://www.w3.org/1999/xlink" x="0px" y="0px"
	 viewBox="0 0 82.6 82.6" style="enable-background:new 0 0 82.6 82.6;" xml:space="preserve">
<style type="text/css">
	.st0{fill:#00DAAF;}
</style>
<g>
	<path class="st0" d="M41.5,0C18.7,0,0.2,18.5,0.2,41.3s18.5,41.3,41.3,41.3S82.8,64,82.8,41.3S64.2,0,41.5,0z M41.5,80.1
		c-21.4,0-38.8-17.4-38.8-38.8S20.1,2.5,41.5,2.5s38.8,17.4,38.8,38.8S62.9,80.1,41.5,80.1z"/>
	<path class="st0" d="M71.5,47.2c0.4,0,0.9-0.1,1.3-0.2c3.3-1,5.3-5.5,5.6-6.1c0.2-0.4,0.1-0.8-0.1-1.2c-0.2-0.3-0.6-0.6-1-0.6
		c-0.5,0-4.3-0.1-6.8,1.5c0-1-0.1-2-0.2-3c1.3-0.1,2.4-0.7,3.2-1.7c2.2-2.7,1.2-7.6,1.1-8.2c-0.1-0.4-0.4-0.7-0.7-0.9
		c-0.4-0.2-0.8-0.1-1.2,0.1c-0.3,0.2-2.7,1.8-4.1,3.9c-0.4-1.1-0.9-2.1-1.4-3.1c1.1-0.6,1.8-1.5,2.2-2.7c0.9-3.3-1.9-7.5-2.2-8
		c-0.2-0.3-0.6-0.5-1-0.5c0,0,0,0,0,0c-0.4,0-0.8,0.2-1,0.5c-0.2,0.3-1.6,2.4-2.1,4.7c-0.6-0.6-1.2-1.2-1.8-1.7
		c0.2-1.1,0.1-2.2-0.5-3.1c-1.7-3-6.6-4-7.2-4.1c-0.4-0.1-0.8,0.1-1.1,0.3c-0.3,0.3-0.4,0.7-0.3,1.1c0.1,0.6,1.1,5.5,4.1,7.2
		c0.7,0.4,1.4,0.6,2.2,0.6c0.4,0,0.7-0.1,1.1-0.1c5.4,4.6,8.7,12,8.7,19.5c0,11-7.3,20.8-17.8,23.8c-0.4,0.1-0.9,0.2-1.3,0.4
		c-2.3,0.6-5,1.4-7.4,2.7c-2.4-1.3-5.1-2.1-7.4-2.7c-0.5-0.1-0.9-0.2-1.3-0.4C22.3,62.3,15,52.5,15,41.5c0-7.5,3.3-14.8,8.7-19.5
		c0.4,0.1,0.7,0.1,1.1,0.1c0.8,0,1.5-0.2,2.2-0.6c3-1.7,4-6.6,4.1-7.2c0.1-0.4-0.1-0.8-0.3-1.1c-0.3-0.3-0.7-0.4-1.1-0.3
		C29.1,13,24.1,14,22.4,17c-0.5,1-0.7,2-0.5,3.1c-0.6,0.6-1.2,1.1-1.8,1.7c-0.5-2.3-1.9-4.4-2.1-4.7c-0.2-0.3-0.6-0.5-1-0.5
		c0,0,0,0,0,0c-0.4,0-0.8,0.2-1,0.5c-0.3,0.5-3.1,4.6-2.2,8c0.3,1.2,1.1,2.1,2.2,2.7c-0.5,1-1,2-1.4,3.1c-1.4-2.2-3.7-3.7-4.1-3.9
		c-0.3-0.2-0.8-0.3-1.2-0.1c-0.4,0.2-0.7,0.5-0.7,0.9c-0.1,0.5-1.1,5.4,1.1,8.2c0.8,1,1.9,1.5,3.2,1.7c-0.1,1-0.2,2-0.2,3
		C10,39,6.2,39.2,5.7,39.2c-0.4,0-0.8,0.2-1,0.6c-0.2,0.3-0.3,0.8-0.1,1.2c0.2,0.5,2.2,5.1,5.6,6.1c0.4,0.1,0.9,0.2,1.3,0.2
		c0.5,0,1.1-0.1,1.6-0.3c0.2,0.9,0.4,1.8,0.7,2.6c-2.8-0.6-6.1,0.6-6.5,0.8c-0.4,0.1-0.7,0.5-0.8,0.9s0,0.8,0.3,1.1
		c0.4,0.4,3.7,4,7.1,4c0.1,0,0.1,0,0.2,0c0.9,0,1.7-0.3,2.4-0.8c0.5,0.9,1.1,1.7,1.7,2.5c-2.6,0.4-5.1,2-5.5,2.2
		c-0.3,0.2-0.5,0.6-0.6,1c0,0.4,0.2,0.8,0.5,1c0.4,0.3,3.5,2.5,6.6,2.5c0.5,0,0.9-0.1,1.4-0.2c1-0.3,1.7-0.8,2.4-1.6
		c2.7,2.1,5.8,3.8,9.2,4.8c0.4,0.1,0.9,0.2,1.3,0.4c1.8,0.5,3.9,1.1,5.7,1.9c-1.2,1-2.1,2.3-2.7,3.8c-0.2,0.6,0.1,1.4,0.7,1.6
		c0.1,0.1,0.3,0.1,0.4,0.1c0.5,0,1-0.3,1.2-0.8c0.5-1.4,1.5-2.5,2.7-3.4c1.2,0.9,2.2,2,2.7,3.4c0.2,0.5,0.7,0.8,1.2,0.8
		c0.1,0,0.3,0,0.4-0.1c0.6-0.2,1-1,0.7-1.6c-0.6-1.6-1.5-2.8-2.7-3.8c1.8-0.8,3.9-1.4,5.7-1.9c0.5-0.1,0.9-0.2,1.3-0.4
		c3.4-1,6.6-2.6,9.2-4.8c0.6,0.8,1.4,1.3,2.4,1.6c0.5,0.1,0.9,0.2,1.4,0.2c3,0,6.2-2.2,6.6-2.5c0.3-0.2,0.5-0.6,0.5-1
		c0-0.4-0.2-0.8-0.6-1c-0.4-0.2-2.8-1.8-5.5-2.2c0.6-0.8,1.1-1.6,1.6-2.5c0.7,0.5,1.5,0.8,2.4,0.8c0.1,0,0.1,0,0.2,0
		c3.4,0,6.7-3.6,7.1-4c0.3-0.3,0.4-0.7,0.3-1.1s-0.4-0.7-0.8-0.9c-0.4-0.2-3.7-1.3-6.5-0.8c0.3-0.9,0.5-1.7,0.7-2.6
		C70.4,47.1,70.9,47.2,71.5,47.2z M69.9,33.8c0.2-1.2,1.3-2.5,2.3-3.4c0.1,1.4-0.1,3.1-0.8,4c-0.3,0.4-0.7,0.6-1.2,0.7
		C69.9,34.7,69.8,34.3,69.9,33.8z M66,20.4c0.6,1.3,1.1,2.9,0.8,4c-0.1,0.5-0.4,0.8-0.8,1.1c-0.4-0.3-0.6-0.6-0.8-1.1
		C64.8,23.3,65.4,21.7,66,20.4z M57.2,19.4c-1.1-0.6-1.8-2.1-2.3-3.4c1.3,0.5,2.8,1.3,3.4,2.3c0.2,0.4,0.3,0.8,0.2,1.3
		C58,19.7,57.6,19.6,57.2,19.4z M24.6,18.3c0.6-1.1,2.1-1.8,3.4-2.3c-0.5,1.3-1.2,2.8-2.3,3.4c-0.4,0.2-0.9,0.3-1.4,0.2
		C24.3,19.1,24.4,18.7,24.6,18.3z M17,20.4c0.6,1.3,1.1,2.9,0.8,4.1c-0.1,0.5-0.4,0.8-0.8,1.1c-0.4-0.3-0.7-0.6-0.8-1.1
		C15.9,23.3,16.4,21.7,17,20.4z M11.6,34.5c-0.8-1-0.9-2.6-0.8-4c1.1,0.9,2.2,2.2,2.3,3.4c0.1,0.5,0,0.9-0.3,1.3
		C12.3,35.1,11.9,34.8,11.6,34.5z M13.9,53.7c-1.2,0-2.6-0.8-3.7-1.7c1.4-0.3,3-0.4,4.1,0.2c0.4,0.2,0.7,0.6,0.9,1
		C14.7,53.6,14.3,53.7,13.9,53.7z M10.9,44.6c-1.2-0.3-2.2-1.6-3-2.8c1.4,0.2,3,0.6,3.8,1.5c0.3,0.4,0.5,0.8,0.5,1.3
		C11.8,44.7,11.3,44.7,10.9,44.6z M19.8,62c-1.2,0.3-2.8-0.2-4-0.8c1.3-0.6,2.9-1.1,4.1-0.7c0.5,0.1,0.8,0.4,1.1,0.8
		C20.6,61.7,20.3,61.9,19.8,62z M72.8,52c-1.1,0.9-2.5,1.8-3.7,1.7c-0.5,0-0.9-0.2-1.2-0.5c0.2-0.5,0.5-0.8,0.9-1
		C69.8,51.6,71.5,51.7,72.8,52z M71.2,43.2c0.8-0.9,2.4-1.3,3.8-1.5c-0.8,1.2-1.8,2.5-3,2.8c-0.5,0.1-0.9,0.1-1.4-0.1
		C70.7,44,70.9,43.6,71.2,43.2z M63.1,62c-0.5-0.1-0.8-0.4-1.1-0.8c0.3-0.4,0.6-0.7,1.1-0.8c1.2-0.3,2.8,0.1,4.1,0.7
		C65.9,61.8,64.3,62.4,63.1,62z"/>
	<path class="st0" d="M23.4,37.4c0,2.5,1.2,4.5,2.2,6L38,58.5c1.9,2.4,3.4,3.2,3.5,3.2c0.2,0.1,0.4,0.1,0.6,0.1
		c0.2,0,0.5-0.1,0.7-0.2c0.1-0.1,1.3-0.8,3.1-3.2l12.7-15.2c0,0,0-0.1,0.1-0.1c0.9-1.3,2.2-3.4,2.2-5.9c0-5.7-4.6-10.3-10.3-10.3
		c-3.5,0-6.6,1.6-8.4,4.3c-1.8-2.7-4.9-4.3-8.4-4.3C28,27.1,23.4,31.7,23.4,37.4z M33.7,29.6c3.4,0,6.2,1.9,7.2,5
		c0.2,0.5,0.6,0.8,1.2,0.8s1-0.3,1.2-0.8c1.1-3.1,3.8-5,7.2-5c4.3,0,7.8,3.5,7.8,7.8c0,1.3-0.5,2.7-1.7,4.4L44,57
		c-0.8,1.1-1.5,1.7-1.9,2.1c-0.5-0.4-1.2-1.1-2.1-2.1L27.6,41.8c-1.2-1.7-1.7-3.1-1.7-4.5C25.9,33.1,29.4,29.6,33.7,29.6z"/>
</g>
</svg>
